# xmcd CD database file
#
# Track frame offsets:
#	150
#	9631
#	36383
#	60901
#	85653
#	104866
#	123679
#	138668
#	158344
#	165404
#	189207
#	215976
#
# Disc length: 3505 seconds
#
# Revision: 2
# Processed by: cddbd v1.5.2PL0 Copyright (c) Steve Scherf et al.
# Submitted via: CDex 1.51
#
DISCID=a20daf0c
DTITLE=Tigran Hamasyan - Mockroot
DYEAR=2015
DGENRE=Jazz
TTITLE0=To Love
TTITLE1=Song For Melan and Rafik
TTITLE2=Kars 1
TTITLE3=Double Faced
TTITLE4=The Roads That Bring Me Closer To You
TTITLE5=Lilac
TTITLE6=Entertain Me
TTITLE7=The Apple Orchard In Saghmosavanq
TTITLE8=Kars 2 'Wounds Of The Centuries)
TTITLE9=To Negate
TTITLE10=The Grid
TTITLE11=Out Of The Grid
EXTD=YEAR: 2015
EXTT0=
EXTT1=
EXTT2=
EXTT3=
EXTT4=
EXTT5=
EXTT6=
EXTT7=
EXTT8=
EXTT9=
EXTT10=
EXTT11=
PLAYORDER=
